%TF.GenerationSoftware,KiCad,Pcbnew,(5.1.6)-1*%
%TF.CreationDate,2020-07-01T09:45:42+05:30*%
%TF.ProjectId,single sided ch340c,73696e67-6c65-4207-9369-646564206368,rev?*%
%TF.SameCoordinates,Original*%
%TF.FileFunction,Soldermask,Bot*%
%TF.FilePolarity,Negative*%
%FSLAX46Y46*%
G04 Gerber Fmt 4.6, Leading zero omitted, Abs format (unit mm)*
G04 Created by KiCad (PCBNEW (5.1.6)-1) date 2020-07-01 09:45:42*
%MOMM*%
%LPD*%
G01*
G04 APERTURE LIST*
%ADD10R,1.800000X1.800000*%
%ADD11O,1.800000X1.800000*%
G04 APERTURE END LIST*
D10*
%TO.C,SW1*%
X280771600Y-27038300D03*
D11*
X280771600Y-29578300D03*
X280771600Y-32118300D03*
%TD*%
D10*
%TO.C,J2*%
X269595600Y-30530800D03*
D11*
X267055600Y-30530800D03*
X264515600Y-30530800D03*
%TD*%
D10*
%TO.C,J3*%
X280200100Y-15544800D03*
D11*
X277660100Y-15544800D03*
X275120100Y-15544800D03*
X272580100Y-15544800D03*
X270040100Y-15544800D03*
X267500100Y-15544800D03*
%TD*%
D10*
%TO.C,J3*%
X280200100Y-46532800D03*
D11*
X277660100Y-46532800D03*
X275120100Y-46532800D03*
X272580100Y-46532800D03*
X270040100Y-46532800D03*
X267500100Y-46532800D03*
%TD*%
D10*
%TO.C,SW1*%
X280771600Y-58026300D03*
D11*
X280771600Y-60566300D03*
X280771600Y-63106300D03*
%TD*%
D10*
%TO.C,J2*%
X269595600Y-61518800D03*
D11*
X267055600Y-61518800D03*
X264515600Y-61518800D03*
%TD*%
%TO.C,SW1*%
X280974800Y-124574300D03*
X280974800Y-122034300D03*
D10*
X280974800Y-119494300D03*
%TD*%
D11*
%TO.C,J2*%
X264718800Y-122986800D03*
X267258800Y-122986800D03*
D10*
X269798800Y-122986800D03*
%TD*%
%TO.C,SW1*%
X152438100Y-177800000D03*
D11*
X149898100Y-177800000D03*
X147358100Y-177800000D03*
%TD*%
D10*
%TO.C,J2*%
X148945600Y-166624000D03*
D11*
X148945600Y-164084000D03*
X148945600Y-161544000D03*
%TD*%
%TO.C,J3*%
X267703300Y-108000800D03*
X270243300Y-108000800D03*
X272783300Y-108000800D03*
X275323300Y-108000800D03*
X277863300Y-108000800D03*
D10*
X280403300Y-108000800D03*
%TD*%
%TO.C,J3*%
X163931600Y-177228500D03*
D11*
X163931600Y-174688500D03*
X163931600Y-172148500D03*
X163931600Y-169608500D03*
X163931600Y-167068500D03*
X163931600Y-164528500D03*
%TD*%
%TO.C,J3*%
X267703300Y-138988800D03*
X270243300Y-138988800D03*
X272783300Y-138988800D03*
X275323300Y-138988800D03*
X277863300Y-138988800D03*
D10*
X280403300Y-138988800D03*
%TD*%
%TO.C,J3*%
X280454100Y-77063600D03*
D11*
X277914100Y-77063600D03*
X275374100Y-77063600D03*
X272834100Y-77063600D03*
X270294100Y-77063600D03*
X267754100Y-77063600D03*
%TD*%
D10*
%TO.C,J2*%
X269849600Y-92049600D03*
D11*
X267309600Y-92049600D03*
X264769600Y-92049600D03*
%TD*%
%TO.C,J2*%
X264718800Y-153974800D03*
X267258800Y-153974800D03*
D10*
X269798800Y-153974800D03*
%TD*%
D11*
%TO.C,SW1*%
X280974800Y-155562300D03*
X280974800Y-153022300D03*
D10*
X280974800Y-150482300D03*
%TD*%
%TO.C,SW1*%
X281025600Y-88557100D03*
D11*
X281025600Y-91097100D03*
X281025600Y-93637100D03*
%TD*%
D10*
%TO.C,J2*%
X86918800Y-166573200D03*
D11*
X86918800Y-164033200D03*
X86918800Y-161493200D03*
%TD*%
%TO.C,J3*%
X39979600Y-164426900D03*
X39979600Y-166966900D03*
X39979600Y-169506900D03*
X39979600Y-172046900D03*
X39979600Y-174586900D03*
D10*
X39979600Y-177126900D03*
%TD*%
D11*
%TO.C,J2*%
X24993600Y-161442400D03*
X24993600Y-163982400D03*
D10*
X24993600Y-166522400D03*
%TD*%
%TO.C,J3*%
X101904800Y-177177700D03*
D11*
X101904800Y-174637700D03*
X101904800Y-172097700D03*
X101904800Y-169557700D03*
X101904800Y-167017700D03*
X101904800Y-164477700D03*
%TD*%
%TO.C,SW1*%
X23406100Y-177698400D03*
X25946100Y-177698400D03*
D10*
X28486100Y-177698400D03*
%TD*%
%TO.C,SW1*%
X90411300Y-177749200D03*
D11*
X87871300Y-177749200D03*
X85331300Y-177749200D03*
%TD*%
D10*
%TO.C,J2*%
X55930800Y-166573200D03*
D11*
X55930800Y-164033200D03*
X55930800Y-161493200D03*
%TD*%
%TO.C,J2*%
X117856000Y-161544000D03*
X117856000Y-164084000D03*
D10*
X117856000Y-166624000D03*
%TD*%
%TO.C,SW1*%
X59423300Y-177749200D03*
D11*
X56883300Y-177749200D03*
X54343300Y-177749200D03*
%TD*%
%TO.C,SW1*%
X116268500Y-177800000D03*
X118808500Y-177800000D03*
D10*
X121348500Y-177800000D03*
%TD*%
%TO.C,J3*%
X70916800Y-177177700D03*
D11*
X70916800Y-174637700D03*
X70916800Y-172097700D03*
X70916800Y-169557700D03*
X70916800Y-167017700D03*
X70916800Y-164477700D03*
%TD*%
%TO.C,J3*%
X132842000Y-164528500D03*
X132842000Y-167068500D03*
X132842000Y-169608500D03*
X132842000Y-172148500D03*
X132842000Y-174688500D03*
D10*
X132842000Y-177228500D03*
%TD*%
%TO.C,J3*%
X101955600Y-153098500D03*
D11*
X101955600Y-150558500D03*
X101955600Y-148018500D03*
X101955600Y-145478500D03*
X101955600Y-142938500D03*
X101955600Y-140398500D03*
%TD*%
D10*
%TO.C,SW1*%
X214414100Y-129590800D03*
D11*
X211874100Y-129590800D03*
X209334100Y-129590800D03*
%TD*%
D10*
%TO.C,J2*%
X210921600Y-118414800D03*
D11*
X210921600Y-115874800D03*
X210921600Y-113334800D03*
%TD*%
%TO.C,J2*%
X25044400Y-137363200D03*
X25044400Y-139903200D03*
D10*
X25044400Y-142443200D03*
%TD*%
D11*
%TO.C,SW1*%
X147408900Y-129540000D03*
X149948900Y-129540000D03*
D10*
X152488900Y-129540000D03*
%TD*%
D11*
%TO.C,J2*%
X148996400Y-113284000D03*
X148996400Y-115824000D03*
D10*
X148996400Y-118364000D03*
%TD*%
%TO.C,J3*%
X225907600Y-129019300D03*
D11*
X225907600Y-126479300D03*
X225907600Y-123939300D03*
X225907600Y-121399300D03*
X225907600Y-118859300D03*
X225907600Y-116319300D03*
%TD*%
%TO.C,J3*%
X163982400Y-116268500D03*
X163982400Y-118808500D03*
X163982400Y-121348500D03*
X163982400Y-123888500D03*
X163982400Y-126428500D03*
D10*
X163982400Y-128968500D03*
%TD*%
D11*
%TO.C,SW1*%
X116319300Y-153720800D03*
X118859300Y-153720800D03*
D10*
X121399300Y-153720800D03*
%TD*%
%TO.C,SW1*%
X59474100Y-153670000D03*
D11*
X56934100Y-153670000D03*
X54394100Y-153670000D03*
%TD*%
D10*
%TO.C,J2*%
X55981600Y-142494000D03*
D11*
X55981600Y-139954000D03*
X55981600Y-137414000D03*
%TD*%
D10*
%TO.C,J3*%
X256844800Y-153250900D03*
D11*
X256844800Y-150710900D03*
X256844800Y-148170900D03*
X256844800Y-145630900D03*
X256844800Y-143090900D03*
X256844800Y-140550900D03*
%TD*%
%TO.C,J2*%
X117906800Y-137464800D03*
X117906800Y-140004800D03*
D10*
X117906800Y-142544800D03*
%TD*%
%TO.C,J3*%
X70967600Y-153098500D03*
D11*
X70967600Y-150558500D03*
X70967600Y-148018500D03*
X70967600Y-145478500D03*
X70967600Y-142938500D03*
X70967600Y-140398500D03*
%TD*%
%TO.C,J3*%
X132892800Y-140449300D03*
X132892800Y-142989300D03*
X132892800Y-145529300D03*
X132892800Y-148069300D03*
X132892800Y-150609300D03*
D10*
X132892800Y-153149300D03*
%TD*%
D11*
%TO.C,J3*%
X194919600Y-140500100D03*
X194919600Y-143040100D03*
X194919600Y-145580100D03*
X194919600Y-148120100D03*
X194919600Y-150660100D03*
D10*
X194919600Y-153200100D03*
%TD*%
D11*
%TO.C,J2*%
X179933600Y-137515600D03*
X179933600Y-140055600D03*
D10*
X179933600Y-142595600D03*
%TD*%
%TO.C,J2*%
X241858800Y-142646400D03*
D11*
X241858800Y-140106400D03*
X241858800Y-137566400D03*
%TD*%
%TO.C,SW1*%
X178346100Y-153771600D03*
X180886100Y-153771600D03*
D10*
X183426100Y-153771600D03*
%TD*%
%TO.C,SW1*%
X245351300Y-153822400D03*
D11*
X242811300Y-153822400D03*
X240271300Y-153822400D03*
%TD*%
%TO.C,SW1*%
X23456900Y-153619200D03*
X25996900Y-153619200D03*
D10*
X28536900Y-153619200D03*
%TD*%
D11*
%TO.C,J3*%
X40030400Y-140347700D03*
X40030400Y-142887700D03*
X40030400Y-145427700D03*
X40030400Y-147967700D03*
X40030400Y-150507700D03*
D10*
X40030400Y-153047700D03*
%TD*%
%TO.C,SW1*%
X152488900Y-153720800D03*
D11*
X149948900Y-153720800D03*
X147408900Y-153720800D03*
%TD*%
D10*
%TO.C,J2*%
X148996400Y-142544800D03*
D11*
X148996400Y-140004800D03*
X148996400Y-137464800D03*
%TD*%
D10*
%TO.C,J3*%
X163982400Y-153149300D03*
D11*
X163982400Y-150609300D03*
X163982400Y-148069300D03*
X163982400Y-145529300D03*
X163982400Y-142989300D03*
X163982400Y-140449300D03*
%TD*%
%TO.C,J2*%
X210921600Y-137515600D03*
X210921600Y-140055600D03*
D10*
X210921600Y-142595600D03*
%TD*%
D11*
%TO.C,SW1*%
X209334100Y-153771600D03*
X211874100Y-153771600D03*
D10*
X214414100Y-153771600D03*
%TD*%
D11*
%TO.C,J3*%
X225907600Y-140500100D03*
X225907600Y-143040100D03*
X225907600Y-145580100D03*
X225907600Y-148120100D03*
X225907600Y-150660100D03*
D10*
X225907600Y-153200100D03*
%TD*%
%TO.C,J2*%
X86969600Y-142494000D03*
D11*
X86969600Y-139954000D03*
X86969600Y-137414000D03*
%TD*%
D10*
%TO.C,SW1*%
X121399300Y-129540000D03*
D11*
X118859300Y-129540000D03*
X116319300Y-129540000D03*
%TD*%
%TO.C,SW1*%
X54394100Y-129489200D03*
X56934100Y-129489200D03*
D10*
X59474100Y-129489200D03*
%TD*%
D11*
%TO.C,J2*%
X55981600Y-113233200D03*
X55981600Y-115773200D03*
D10*
X55981600Y-118313200D03*
%TD*%
D11*
%TO.C,J3*%
X70967600Y-116217700D03*
X70967600Y-118757700D03*
X70967600Y-121297700D03*
X70967600Y-123837700D03*
X70967600Y-126377700D03*
D10*
X70967600Y-128917700D03*
%TD*%
%TO.C,J3*%
X132892800Y-128968500D03*
D11*
X132892800Y-126428500D03*
X132892800Y-123888500D03*
X132892800Y-121348500D03*
X132892800Y-118808500D03*
X132892800Y-116268500D03*
%TD*%
D10*
%TO.C,J2*%
X117906800Y-118364000D03*
D11*
X117906800Y-115824000D03*
X117906800Y-113284000D03*
%TD*%
%TO.C,J3*%
X256844800Y-116370100D03*
X256844800Y-118910100D03*
X256844800Y-121450100D03*
X256844800Y-123990100D03*
X256844800Y-126530100D03*
D10*
X256844800Y-129070100D03*
%TD*%
%TO.C,J3*%
X194919600Y-129019300D03*
D11*
X194919600Y-126479300D03*
X194919600Y-123939300D03*
X194919600Y-121399300D03*
X194919600Y-118859300D03*
X194919600Y-116319300D03*
%TD*%
%TO.C,J2*%
X241858800Y-113385600D03*
X241858800Y-115925600D03*
D10*
X241858800Y-118465600D03*
%TD*%
%TO.C,J2*%
X179933600Y-118414800D03*
D11*
X179933600Y-115874800D03*
X179933600Y-113334800D03*
%TD*%
D10*
%TO.C,SW1*%
X183426100Y-129590800D03*
D11*
X180886100Y-129590800D03*
X178346100Y-129590800D03*
%TD*%
%TO.C,SW1*%
X240271300Y-129641600D03*
X242811300Y-129641600D03*
D10*
X245351300Y-129641600D03*
%TD*%
%TO.C,SW1*%
X90462100Y-153670000D03*
D11*
X87922100Y-153670000D03*
X85382100Y-153670000D03*
%TD*%
D10*
%TO.C,SW1*%
X28536900Y-129438400D03*
D11*
X25996900Y-129438400D03*
X23456900Y-129438400D03*
%TD*%
D10*
%TO.C,J3*%
X40030400Y-128866900D03*
D11*
X40030400Y-126326900D03*
X40030400Y-123786900D03*
X40030400Y-121246900D03*
X40030400Y-118706900D03*
X40030400Y-116166900D03*
%TD*%
D10*
%TO.C,J2*%
X25044400Y-118262400D03*
D11*
X25044400Y-115722400D03*
X25044400Y-113182400D03*
%TD*%
%TO.C,J3*%
X101955600Y-116217700D03*
X101955600Y-118757700D03*
X101955600Y-121297700D03*
X101955600Y-123837700D03*
X101955600Y-126377700D03*
D10*
X101955600Y-128917700D03*
%TD*%
D11*
%TO.C,J2*%
X86969600Y-113233200D03*
X86969600Y-115773200D03*
D10*
X86969600Y-118313200D03*
%TD*%
D11*
%TO.C,SW1*%
X85382100Y-129489200D03*
X87922100Y-129489200D03*
D10*
X90462100Y-129489200D03*
%TD*%
%TO.C,J3*%
X101955600Y-104889300D03*
D11*
X101955600Y-102349300D03*
X101955600Y-99809300D03*
X101955600Y-97269300D03*
X101955600Y-94729300D03*
X101955600Y-92189300D03*
%TD*%
D10*
%TO.C,SW1*%
X214414100Y-81381600D03*
D11*
X211874100Y-81381600D03*
X209334100Y-81381600D03*
%TD*%
D10*
%TO.C,J2*%
X210921600Y-70205600D03*
D11*
X210921600Y-67665600D03*
X210921600Y-65125600D03*
%TD*%
%TO.C,J2*%
X25044400Y-89154000D03*
X25044400Y-91694000D03*
D10*
X25044400Y-94234000D03*
%TD*%
D11*
%TO.C,SW1*%
X147408900Y-81330800D03*
X149948900Y-81330800D03*
D10*
X152488900Y-81330800D03*
%TD*%
D11*
%TO.C,J2*%
X148996400Y-65074800D03*
X148996400Y-67614800D03*
D10*
X148996400Y-70154800D03*
%TD*%
%TO.C,J3*%
X225907600Y-80810100D03*
D11*
X225907600Y-78270100D03*
X225907600Y-75730100D03*
X225907600Y-73190100D03*
X225907600Y-70650100D03*
X225907600Y-68110100D03*
%TD*%
%TO.C,J3*%
X163982400Y-68059300D03*
X163982400Y-70599300D03*
X163982400Y-73139300D03*
X163982400Y-75679300D03*
X163982400Y-78219300D03*
D10*
X163982400Y-80759300D03*
%TD*%
D11*
%TO.C,SW1*%
X116319300Y-105511600D03*
X118859300Y-105511600D03*
D10*
X121399300Y-105511600D03*
%TD*%
%TO.C,SW1*%
X59474100Y-105460800D03*
D11*
X56934100Y-105460800D03*
X54394100Y-105460800D03*
%TD*%
D10*
%TO.C,J2*%
X55981600Y-94284800D03*
D11*
X55981600Y-91744800D03*
X55981600Y-89204800D03*
%TD*%
D10*
%TO.C,J3*%
X256844800Y-105041700D03*
D11*
X256844800Y-102501700D03*
X256844800Y-99961700D03*
X256844800Y-97421700D03*
X256844800Y-94881700D03*
X256844800Y-92341700D03*
%TD*%
%TO.C,J2*%
X117906800Y-89255600D03*
X117906800Y-91795600D03*
D10*
X117906800Y-94335600D03*
%TD*%
%TO.C,J3*%
X70967600Y-104889300D03*
D11*
X70967600Y-102349300D03*
X70967600Y-99809300D03*
X70967600Y-97269300D03*
X70967600Y-94729300D03*
X70967600Y-92189300D03*
%TD*%
%TO.C,J3*%
X132892800Y-92240100D03*
X132892800Y-94780100D03*
X132892800Y-97320100D03*
X132892800Y-99860100D03*
X132892800Y-102400100D03*
D10*
X132892800Y-104940100D03*
%TD*%
D11*
%TO.C,J3*%
X194919600Y-92290900D03*
X194919600Y-94830900D03*
X194919600Y-97370900D03*
X194919600Y-99910900D03*
X194919600Y-102450900D03*
D10*
X194919600Y-104990900D03*
%TD*%
D11*
%TO.C,J2*%
X179933600Y-89306400D03*
X179933600Y-91846400D03*
D10*
X179933600Y-94386400D03*
%TD*%
%TO.C,J2*%
X241858800Y-94437200D03*
D11*
X241858800Y-91897200D03*
X241858800Y-89357200D03*
%TD*%
%TO.C,SW1*%
X178346100Y-105562400D03*
X180886100Y-105562400D03*
D10*
X183426100Y-105562400D03*
%TD*%
%TO.C,SW1*%
X245351300Y-105613200D03*
D11*
X242811300Y-105613200D03*
X240271300Y-105613200D03*
%TD*%
%TO.C,SW1*%
X23456900Y-105410000D03*
X25996900Y-105410000D03*
D10*
X28536900Y-105410000D03*
%TD*%
D11*
%TO.C,J3*%
X40030400Y-92138500D03*
X40030400Y-94678500D03*
X40030400Y-97218500D03*
X40030400Y-99758500D03*
X40030400Y-102298500D03*
D10*
X40030400Y-104838500D03*
%TD*%
%TO.C,SW1*%
X152488900Y-105511600D03*
D11*
X149948900Y-105511600D03*
X147408900Y-105511600D03*
%TD*%
D10*
%TO.C,J2*%
X148996400Y-94335600D03*
D11*
X148996400Y-91795600D03*
X148996400Y-89255600D03*
%TD*%
D10*
%TO.C,J3*%
X163982400Y-104940100D03*
D11*
X163982400Y-102400100D03*
X163982400Y-99860100D03*
X163982400Y-97320100D03*
X163982400Y-94780100D03*
X163982400Y-92240100D03*
%TD*%
%TO.C,J2*%
X210921600Y-89306400D03*
X210921600Y-91846400D03*
D10*
X210921600Y-94386400D03*
%TD*%
D11*
%TO.C,SW1*%
X209334100Y-105562400D03*
X211874100Y-105562400D03*
D10*
X214414100Y-105562400D03*
%TD*%
D11*
%TO.C,J3*%
X225907600Y-92290900D03*
X225907600Y-94830900D03*
X225907600Y-97370900D03*
X225907600Y-99910900D03*
X225907600Y-102450900D03*
D10*
X225907600Y-104990900D03*
%TD*%
%TO.C,J2*%
X86969600Y-94284800D03*
D11*
X86969600Y-91744800D03*
X86969600Y-89204800D03*
%TD*%
D10*
%TO.C,SW1*%
X121399300Y-81330800D03*
D11*
X118859300Y-81330800D03*
X116319300Y-81330800D03*
%TD*%
%TO.C,SW1*%
X54394100Y-81280000D03*
X56934100Y-81280000D03*
D10*
X59474100Y-81280000D03*
%TD*%
D11*
%TO.C,J2*%
X55981600Y-65024000D03*
X55981600Y-67564000D03*
D10*
X55981600Y-70104000D03*
%TD*%
D11*
%TO.C,J3*%
X70967600Y-68008500D03*
X70967600Y-70548500D03*
X70967600Y-73088500D03*
X70967600Y-75628500D03*
X70967600Y-78168500D03*
D10*
X70967600Y-80708500D03*
%TD*%
%TO.C,J3*%
X132892800Y-80759300D03*
D11*
X132892800Y-78219300D03*
X132892800Y-75679300D03*
X132892800Y-73139300D03*
X132892800Y-70599300D03*
X132892800Y-68059300D03*
%TD*%
D10*
%TO.C,J2*%
X117906800Y-70154800D03*
D11*
X117906800Y-67614800D03*
X117906800Y-65074800D03*
%TD*%
%TO.C,J3*%
X256844800Y-68160900D03*
X256844800Y-70700900D03*
X256844800Y-73240900D03*
X256844800Y-75780900D03*
X256844800Y-78320900D03*
D10*
X256844800Y-80860900D03*
%TD*%
%TO.C,J3*%
X194919600Y-80810100D03*
D11*
X194919600Y-78270100D03*
X194919600Y-75730100D03*
X194919600Y-73190100D03*
X194919600Y-70650100D03*
X194919600Y-68110100D03*
%TD*%
%TO.C,J2*%
X241858800Y-65176400D03*
X241858800Y-67716400D03*
D10*
X241858800Y-70256400D03*
%TD*%
%TO.C,J2*%
X179933600Y-70205600D03*
D11*
X179933600Y-67665600D03*
X179933600Y-65125600D03*
%TD*%
D10*
%TO.C,SW1*%
X183426100Y-81381600D03*
D11*
X180886100Y-81381600D03*
X178346100Y-81381600D03*
%TD*%
%TO.C,SW1*%
X240271300Y-81432400D03*
X242811300Y-81432400D03*
D10*
X245351300Y-81432400D03*
%TD*%
%TO.C,SW1*%
X90462100Y-105460800D03*
D11*
X87922100Y-105460800D03*
X85382100Y-105460800D03*
%TD*%
D10*
%TO.C,SW1*%
X28536900Y-81229200D03*
D11*
X25996900Y-81229200D03*
X23456900Y-81229200D03*
%TD*%
D10*
%TO.C,J3*%
X40030400Y-80657700D03*
D11*
X40030400Y-78117700D03*
X40030400Y-75577700D03*
X40030400Y-73037700D03*
X40030400Y-70497700D03*
X40030400Y-67957700D03*
%TD*%
D10*
%TO.C,J2*%
X25044400Y-70053200D03*
D11*
X25044400Y-67513200D03*
X25044400Y-64973200D03*
%TD*%
%TO.C,J3*%
X101955600Y-68008500D03*
X101955600Y-70548500D03*
X101955600Y-73088500D03*
X101955600Y-75628500D03*
X101955600Y-78168500D03*
D10*
X101955600Y-80708500D03*
%TD*%
D11*
%TO.C,J2*%
X86969600Y-65024000D03*
X86969600Y-67564000D03*
D10*
X86969600Y-70104000D03*
%TD*%
D11*
%TO.C,SW1*%
X85382100Y-81280000D03*
X87922100Y-81280000D03*
D10*
X90462100Y-81280000D03*
%TD*%
%TO.C,SW1*%
X214464900Y-57302400D03*
D11*
X211924900Y-57302400D03*
X209384900Y-57302400D03*
%TD*%
D10*
%TO.C,J2*%
X210972400Y-46126400D03*
D11*
X210972400Y-43586400D03*
X210972400Y-41046400D03*
%TD*%
%TO.C,SW1*%
X147459700Y-57251600D03*
X149999700Y-57251600D03*
D10*
X152539700Y-57251600D03*
%TD*%
D11*
%TO.C,J2*%
X149047200Y-40995600D03*
X149047200Y-43535600D03*
D10*
X149047200Y-46075600D03*
%TD*%
%TO.C,J3*%
X225958400Y-56730900D03*
D11*
X225958400Y-54190900D03*
X225958400Y-51650900D03*
X225958400Y-49110900D03*
X225958400Y-46570900D03*
X225958400Y-44030900D03*
%TD*%
%TO.C,J3*%
X164033200Y-43980100D03*
X164033200Y-46520100D03*
X164033200Y-49060100D03*
X164033200Y-51600100D03*
X164033200Y-54140100D03*
D10*
X164033200Y-56680100D03*
%TD*%
%TO.C,SW1*%
X121450100Y-57251600D03*
D11*
X118910100Y-57251600D03*
X116370100Y-57251600D03*
%TD*%
%TO.C,SW1*%
X54444900Y-57200800D03*
X56984900Y-57200800D03*
D10*
X59524900Y-57200800D03*
%TD*%
D11*
%TO.C,J2*%
X56032400Y-40944800D03*
X56032400Y-43484800D03*
D10*
X56032400Y-46024800D03*
%TD*%
D11*
%TO.C,J3*%
X71018400Y-43929300D03*
X71018400Y-46469300D03*
X71018400Y-49009300D03*
X71018400Y-51549300D03*
X71018400Y-54089300D03*
D10*
X71018400Y-56629300D03*
%TD*%
%TO.C,J3*%
X132943600Y-56680100D03*
D11*
X132943600Y-54140100D03*
X132943600Y-51600100D03*
X132943600Y-49060100D03*
X132943600Y-46520100D03*
X132943600Y-43980100D03*
%TD*%
D10*
%TO.C,J2*%
X117957600Y-46075600D03*
D11*
X117957600Y-43535600D03*
X117957600Y-40995600D03*
%TD*%
%TO.C,J3*%
X256895600Y-44081700D03*
X256895600Y-46621700D03*
X256895600Y-49161700D03*
X256895600Y-51701700D03*
X256895600Y-54241700D03*
D10*
X256895600Y-56781700D03*
%TD*%
%TO.C,J3*%
X194970400Y-56730900D03*
D11*
X194970400Y-54190900D03*
X194970400Y-51650900D03*
X194970400Y-49110900D03*
X194970400Y-46570900D03*
X194970400Y-44030900D03*
%TD*%
%TO.C,J2*%
X241909600Y-41097200D03*
X241909600Y-43637200D03*
D10*
X241909600Y-46177200D03*
%TD*%
%TO.C,J2*%
X179984400Y-46126400D03*
D11*
X179984400Y-43586400D03*
X179984400Y-41046400D03*
%TD*%
D10*
%TO.C,SW1*%
X183476900Y-57302400D03*
D11*
X180936900Y-57302400D03*
X178396900Y-57302400D03*
%TD*%
%TO.C,SW1*%
X240322100Y-57353200D03*
X242862100Y-57353200D03*
D10*
X245402100Y-57353200D03*
%TD*%
%TO.C,SW1*%
X28587700Y-57150000D03*
D11*
X26047700Y-57150000D03*
X23507700Y-57150000D03*
%TD*%
D10*
%TO.C,J3*%
X40081200Y-56578500D03*
D11*
X40081200Y-54038500D03*
X40081200Y-51498500D03*
X40081200Y-48958500D03*
X40081200Y-46418500D03*
X40081200Y-43878500D03*
%TD*%
D10*
%TO.C,J2*%
X25095200Y-45974000D03*
D11*
X25095200Y-43434000D03*
X25095200Y-40894000D03*
%TD*%
%TO.C,J3*%
X102006400Y-43929300D03*
X102006400Y-46469300D03*
X102006400Y-49009300D03*
X102006400Y-51549300D03*
X102006400Y-54089300D03*
D10*
X102006400Y-56629300D03*
%TD*%
D11*
%TO.C,J2*%
X87020400Y-40944800D03*
X87020400Y-43484800D03*
D10*
X87020400Y-46024800D03*
%TD*%
D11*
%TO.C,SW1*%
X85432900Y-57200800D03*
X87972900Y-57200800D03*
D10*
X90512900Y-57200800D03*
%TD*%
%TO.C,SW1*%
X245402100Y-33172400D03*
D11*
X242862100Y-33172400D03*
X240322100Y-33172400D03*
%TD*%
%TO.C,SW1*%
X178396900Y-33121600D03*
X180936900Y-33121600D03*
D10*
X183476900Y-33121600D03*
%TD*%
D11*
%TO.C,J2*%
X179984400Y-16865600D03*
X179984400Y-19405600D03*
D10*
X179984400Y-21945600D03*
%TD*%
D11*
%TO.C,J3*%
X194970400Y-19850100D03*
X194970400Y-22390100D03*
X194970400Y-24930100D03*
X194970400Y-27470100D03*
X194970400Y-30010100D03*
D10*
X194970400Y-32550100D03*
%TD*%
%TO.C,J3*%
X256895600Y-32600900D03*
D11*
X256895600Y-30060900D03*
X256895600Y-27520900D03*
X256895600Y-24980900D03*
X256895600Y-22440900D03*
X256895600Y-19900900D03*
%TD*%
D10*
%TO.C,J2*%
X241909600Y-21996400D03*
D11*
X241909600Y-19456400D03*
X241909600Y-16916400D03*
%TD*%
D10*
%TO.C,SW1*%
X152539700Y-33070800D03*
D11*
X149999700Y-33070800D03*
X147459700Y-33070800D03*
%TD*%
D10*
%TO.C,J3*%
X164033200Y-32499300D03*
D11*
X164033200Y-29959300D03*
X164033200Y-27419300D03*
X164033200Y-24879300D03*
X164033200Y-22339300D03*
X164033200Y-19799300D03*
%TD*%
D10*
%TO.C,J2*%
X149047200Y-21894800D03*
D11*
X149047200Y-19354800D03*
X149047200Y-16814800D03*
%TD*%
%TO.C,J3*%
X225958400Y-19850100D03*
X225958400Y-22390100D03*
X225958400Y-24930100D03*
X225958400Y-27470100D03*
X225958400Y-30010100D03*
D10*
X225958400Y-32550100D03*
%TD*%
D11*
%TO.C,J2*%
X210972400Y-16865600D03*
X210972400Y-19405600D03*
D10*
X210972400Y-21945600D03*
%TD*%
D11*
%TO.C,SW1*%
X209384900Y-33121600D03*
X211924900Y-33121600D03*
D10*
X214464900Y-33121600D03*
%TD*%
D11*
%TO.C,SW1*%
X116370100Y-33070800D03*
X118910100Y-33070800D03*
D10*
X121450100Y-33070800D03*
%TD*%
D11*
%TO.C,J2*%
X117957600Y-16814800D03*
X117957600Y-19354800D03*
D10*
X117957600Y-21894800D03*
%TD*%
D11*
%TO.C,J3*%
X132943600Y-19799300D03*
X132943600Y-22339300D03*
X132943600Y-24879300D03*
X132943600Y-27419300D03*
X132943600Y-29959300D03*
D10*
X132943600Y-32499300D03*
%TD*%
%TO.C,SW1*%
X90512900Y-33020000D03*
D11*
X87972900Y-33020000D03*
X85432900Y-33020000D03*
%TD*%
D10*
%TO.C,J3*%
X102006400Y-32448500D03*
D11*
X102006400Y-29908500D03*
X102006400Y-27368500D03*
X102006400Y-24828500D03*
X102006400Y-22288500D03*
X102006400Y-19748500D03*
%TD*%
D10*
%TO.C,J2*%
X87020400Y-21844000D03*
D11*
X87020400Y-19304000D03*
X87020400Y-16764000D03*
%TD*%
D10*
%TO.C,SW1*%
X59524900Y-33020000D03*
D11*
X56984900Y-33020000D03*
X54444900Y-33020000D03*
%TD*%
D10*
%TO.C,J3*%
X71018400Y-32448500D03*
D11*
X71018400Y-29908500D03*
X71018400Y-27368500D03*
X71018400Y-24828500D03*
X71018400Y-22288500D03*
X71018400Y-19748500D03*
%TD*%
D10*
%TO.C,J2*%
X56032400Y-21844000D03*
D11*
X56032400Y-19304000D03*
X56032400Y-16764000D03*
%TD*%
%TO.C,SW1*%
X23507700Y-32969200D03*
X26047700Y-32969200D03*
D10*
X28587700Y-32969200D03*
%TD*%
D11*
%TO.C,J3*%
X40081200Y-19697700D03*
X40081200Y-22237700D03*
X40081200Y-24777700D03*
X40081200Y-27317700D03*
X40081200Y-29857700D03*
D10*
X40081200Y-32397700D03*
%TD*%
D11*
%TO.C,J2*%
X25095200Y-16713200D03*
X25095200Y-19253200D03*
D10*
X25095200Y-21793200D03*
%TD*%
M02*
